<svg xmlns="http://www.w3.org/2000/svg" xmlns:osb="http://www.openswatchbook.org/uri/2009/osb" xmlns:svg="http://www.w3.org/2000/svg" xmlns:xlink="http://www.w3.org/1999/xlink" id="svg21" width="86" height="86" x="0" y="0" enable-background="new 0 0 86 86" version="1.1" viewBox="0 0 86 86" xml:space="preserve"><metadata id="metadata27"/><defs id="defs25"><marker id="Arrow1Sstart" orient="auto" refX="0" refY="0" style="overflow:visible"><path id="path6049" d="M 0.0,0.0 L 5.0,-5.0 L -12.5,0.0 L 5.0,5.0 L 0.0,0.0 z" transform="scale(0.2) translate(6,0)" style="fill-rule:evenodd;stroke:#00ff41;stroke-width:1pt;stroke-opacity:1;fill:#00ff41;fill-opacity:1"/></marker><marker id="Arrow2Lstart" orient="auto" refX="0" refY="0" style="overflow:visible"><path id="path6055" d="M 8.7185878,4.0337352 L -2.2072895,0.016013256 L 8.7185884,-4.0017078 C 6.9730900,-1.6296469 6.9831476,1.6157441 8.7185878,4.0337352 z" transform="scale(1.1) translate(1,0)" style="fill-rule:evenodd;stroke-width:.625;stroke-linejoin:round;stroke:#00ff41;stroke-opacity:1;fill:#00ff41;fill-opacity:1"/></marker><linearGradient id="linearGradient6019" osb:paint="solid"><stop style="stop-color:#00e0b3;stop-opacity:1" id="stop6017" offset="0"/></linearGradient><linearGradient id="SVGID_1_-6" x1="655.903" x2="739.68" y1="85.232" y2=".547" gradientTransform="matrix(-0.73970946,0,0,0.80111602,561.24102,8.8253163)" gradientUnits="userSpaceOnUse"><stop id="stop5-5" offset="0" style="stop-color:#af900c;stop-opacity:1"/><stop id="stop3-7" offset="1" style="stop-color:#ffa406;stop-opacity:1"/></linearGradient><linearGradient id="linearGradient4527" x1=".664" x2="86.064" y1="43" y2="43" gradientUnits="userSpaceOnUse" spreadMethod="pad" xlink:href="#SVGID_1_-6"/></defs><g id="Layer_1"><linearGradient id="SVGID_1_" x1="655.903" x2="740.37" y1="85.232" y2=".765" gradientTransform="matrix(-1,0,0,1,741.50201,0)" gradientUnits="userSpaceOnUse" spreadMethod="pad"><stop style="stop-color:#ff7381" id="stop3" offset="0"/><stop style="stop-color:#b84ace" id="stop5" offset="1"/></linearGradient><path id="path8" d="M 2.0874068,0.4 H 43.364407 c 23.583,0 42.7,19.066 42.7,42.595 V 84.18 c 0,0.784 -0.637,1.42 -1.423,1.42 h -41.277 C 19.781407,85.6 0.66440678,66.524 0.66440678,42.994 V 1.82 c 0,-0.785 0.63700002,-1.42 1.42300002,-1.42 z" style="fill:url(#linearGradient4527);fill-opacity:1;fill-rule:nonzero"/><path style="fill:none;fill-opacity:1;fill-rule:evenodd;stroke:#ffc958;stroke-width:8.73056984;stroke-linecap:round;stroke-linejoin:round;stroke-miterlimit:4;stroke-dasharray:none;stroke-opacity:1;paint-order:normal" id="path4512" d="m 27.162587,26.268798 32.634367,0.03639 C 43.623776,42.727176 37.099414,49.727045 27.696608,59.537729 l 32.61107,-0.451248 v 0"/><path style="fill:none;fill-rule:evenodd;stroke:#ffc958;stroke-width:8;stroke-linecap:round;stroke-linejoin:round;stroke-miterlimit:4;stroke-dasharray:none;stroke-opacity:1" id="path6357" d="M 32.299931,20.027424 V 25 25"/><path style="fill:none;fill-rule:evenodd;stroke:#ffc958;stroke-width:8;stroke-linecap:round;stroke-linejoin:round;stroke-miterlimit:4;stroke-dasharray:none;stroke-opacity:1" id="path6357-3" d="m 54.299931,19.912017 v 4.972576 0"/><path style="fill:none;fill-rule:evenodd;stroke:#ffc958;stroke-width:8;stroke-linecap:round;stroke-linejoin:round;stroke-miterlimit:4;stroke-dasharray:none;stroke-opacity:1" id="path6357-6" d="m 32.299931,59.912017 v 4.972576 0"/><path style="fill:none;fill-rule:evenodd;stroke:#ffc958;stroke-width:8;stroke-linecap:round;stroke-linejoin:round;stroke-miterlimit:4;stroke-dasharray:none;stroke-opacity:1" id="path6357-6-7" d="m 54.299931,59.912017 v 4.972576 0"/></g></svg>